<svg xmlns="http://www.w3.org/2000/svg" viewBox="0 0 512 512" width="64" height="64">
  <!-- Robot body -->
  <rect x="128" y="160" width="256" height="208" rx="16" ry="16" fill="#3498db" />
  
  <!-- Robot head -->
  <rect x="176" y="96" width="160" height="96" rx="8" ry="8" fill="#2980b9" />
  
  <!-- Robot eyes -->
  <circle cx="208" cy="144" r="16" fill="#ecf0f1" />
  <circle cx="304" cy="144" r="16" fill="#ecf0f1" />
  <circle cx="208" cy="144" r="8" fill="#34495e" />
  <circle cx="304" cy="144" r="8" fill="#34495e" />
  
  <!-- Robot mouth -->
  <rect x="224" y="176" width="64" height="8" rx="4" ry="4" fill="#ecf0f1" />
  
  <!-- Robot antenna -->
  <rect x="248" y="64" width="16" height="32" fill="#7f8c8d" />
  <circle cx="256" cy="48" r="16" fill="#e74c3c" />
  
  <!-- Robot arms -->
  <rect x="96" y="192" width="32" height="128" rx="8" ry="8" fill="#7f8c8d" />
  <rect x="384" y="192" width="32" height="128" rx="8" ry="8" fill="#7f8c8d" />
  
  <!-- Robot hands -->
  <circle cx="112" cy="336" r="16" fill="#95a5a6" />
  <circle cx="400" cy="336" r="16" fill="#95a5a6" />
  
  <!-- Robot legs -->
  <rect x="176" y="368" width="32" height="80" rx="8" ry="8" fill="#7f8c8d" />
  <rect x="304" y="368" width="32" height="80" rx="8" ry="8" fill="#7f8c8d" />
  
  <!-- Robot feet -->
  <rect x="160" y="448" width="64" height="16" rx="8" ry="8" fill="#95a5a6" />
  <rect x="288" y="448" width="64" height="16" rx="8" ry="8" fill="#95a5a6" />
  
  <!-- Robot panel -->
  <rect x="192" y="208" width="128" height="64" rx="4" ry="4" fill="#ecf0f1" />
  <circle cx="224" cy="240" r="8" fill="#e74c3c" />
  <circle cx="256" cy="240" r="8" fill="#2ecc71" />
  <circle cx="288" cy="240" r="8" fill="#f1c40f" />
</svg>
